<svg xmlns="http://www.w3.org/2000/svg" xmlns:xlink="http://www.w3.org/1999/xlink" width="2395" height="1399" viewBox="0 0 2395 1399">
  <defs>
    <filter id="Rectangle_3" x="204" y="0" width="426" height="383" filterUnits="userSpaceOnUse">
      <feOffset dy="3" input="SourceAlpha"/>
      <feGaussianBlur stdDeviation="3" result="blur"/>
      <feFlood flood-color="#2b5779"/>
      <feComposite operator="in" in2="blur"/>
      <feComposite in="SourceGraphic"/>
    </filter>
    <filter id="Rectangle_9" x="0" y="728" width="426" height="383" filterUnits="userSpaceOnUse">
      <feOffset dy="3" input="SourceAlpha"/>
      <feGaussianBlur stdDeviation="3" result="blur-2"/>
      <feFlood flood-color="#2b5779"/>
      <feComposite operator="in" in2="blur-2"/>
      <feComposite in="SourceGraphic"/>
    </filter>
    <filter id="Rectangle_7" x="598" y="547" width="165" height="149" filterUnits="userSpaceOnUse">
      <feOffset dy="3" input="SourceAlpha"/>
      <feGaussianBlur stdDeviation="3" result="blur-3"/>
      <feFlood flood-color="#2b5779"/>
      <feComposite operator="in" in2="blur-3"/>
      <feComposite in="SourceGraphic"/>
    </filter>
    <filter id="Rectangle_11" x="884" y="286" width="165" height="149" filterUnits="userSpaceOnUse">
      <feOffset dy="3" input="SourceAlpha"/>
      <feGaussianBlur stdDeviation="3" result="blur-4"/>
      <feFlood flood-color="#2b5779"/>
      <feComposite operator="in" in2="blur-4"/>
      <feComposite in="SourceGraphic"/>
    </filter>
    <filter id="Rectangle_10" x="854" y="780" width="165" height="149" filterUnits="userSpaceOnUse">
      <feOffset dy="3" input="SourceAlpha"/>
      <feGaussianBlur stdDeviation="3" result="blur-5"/>
      <feFlood flood-color="#2b5779"/>
      <feComposite operator="in" in2="blur-5"/>
      <feComposite in="SourceGraphic"/>
    </filter>
    <filter id="Rectangle_18" x="928" y="1250" width="165" height="149" filterUnits="userSpaceOnUse">
      <feOffset dy="3" input="SourceAlpha"/>
      <feGaussianBlur stdDeviation="3" result="blur-6"/>
      <feFlood flood-color="#2b5779"/>
      <feComposite operator="in" in2="blur-6"/>
      <feComposite in="SourceGraphic"/>
    </filter>
    <filter id="Rectangle_19" x="1299" y="1250" width="165" height="149" filterUnits="userSpaceOnUse">
      <feOffset dy="3" input="SourceAlpha"/>
      <feGaussianBlur stdDeviation="3" result="blur-7"/>
      <feFlood flood-color="#2b5779"/>
      <feComposite operator="in" in2="blur-7"/>
      <feComposite in="SourceGraphic"/>
    </filter>
    <filter id="Rectangle_12" x="1765" y="0" width="426" height="383" filterUnits="userSpaceOnUse">
      <feOffset dy="3" input="SourceAlpha"/>
      <feGaussianBlur stdDeviation="3" result="blur-8"/>
      <feFlood flood-color="#2b5779"/>
      <feComposite operator="in" in2="blur-8"/>
      <feComposite in="SourceGraphic"/>
    </filter>
    <filter id="Rectangle_15" x="1969" y="728" width="426" height="383" filterUnits="userSpaceOnUse">
      <feOffset dy="3" input="SourceAlpha"/>
      <feGaussianBlur stdDeviation="3" result="blur-9"/>
      <feFlood flood-color="#2b5779"/>
      <feComposite operator="in" in2="blur-9"/>
      <feComposite in="SourceGraphic"/>
    </filter>
    <filter id="Rectangle_13" x="1591" y="532" width="165" height="149" filterUnits="userSpaceOnUse">
      <feOffset dy="3" input="SourceAlpha"/>
      <feGaussianBlur stdDeviation="3" result="blur-10"/>
      <feFlood flood-color="#2b5779"/>
      <feComposite operator="in" in2="blur-10"/>
      <feComposite in="SourceGraphic"/>
    </filter>
    <filter id="Rectangle_16" x="1346" y="286" width="165" height="149" filterUnits="userSpaceOnUse">
      <feOffset dy="3" input="SourceAlpha"/>
      <feGaussianBlur stdDeviation="3" result="blur-11"/>
      <feFlood flood-color="#2b5779"/>
      <feComposite operator="in" in2="blur-11"/>
      <feComposite in="SourceGraphic"/>
    </filter>
    <filter id="Rectangle_17" x="1376" y="780" width="165" height="149" filterUnits="userSpaceOnUse">
      <feOffset dy="3" input="SourceAlpha"/>
      <feGaussianBlur stdDeviation="3" result="blur-12"/>
      <feFlood flood-color="#2b5779"/>
      <feComposite operator="in" in2="blur-12"/>
      <feComposite in="SourceGraphic"/>
    </filter>
  </defs>
  <g id="backnet" transform="translate(-5749 -1149)">
    <g id="Group_3" data-name="Group 3">
      <g id="Group_2" data-name="Group 2">
        <g id="Group_1" data-name="Group 1">
          <line id="Line_1" data-name="Line 1" x2="291" y2="291" transform="translate(6153.5 1476.5)" fill="none" stroke="#152c57" stroke-width="10"/>
          <line id="Line_3" data-name="Line 3" y1="291" x2="315" transform="translate(6129.5 1774.5)" fill="none" stroke="#152c57" stroke-width="10"/>
          <line id="Line_4" data-name="Line 4" y1="420" x2="242" transform="translate(5952.5 1476.5)" fill="none" stroke="#152c57" stroke-width="10"/>
          <line id="Line_6" data-name="Line 6" x1="241" y2="261" transform="translate(6444.5 1506.5)" fill="none" stroke="#152c57" stroke-width="10"/>
          <path id="Path_3" data-name="Path 3" d="M490.058,230.925V93.57H37.369V230.925" transform="translate(6685.5 1249.5)" fill="none" stroke="#152c57" stroke-width="10"/>
          <line id="Line_5" data-name="Line 5" x2="212" y2="261" transform="translate(6429.5 1767.5)" fill="none" stroke="#152c57" stroke-width="10"/>
          <line id="Line_14" data-name="Line 14" x1="537" y2="508" transform="translate(6641.5 1520.5)" fill="none" stroke="#152c57" stroke-width="10"/>
          <line id="Line_15" data-name="Line 15" x1="589" transform="translate(6641.5 2028.5)" fill="none" stroke="#152c57" stroke-width="10"/>
          <line id="Line_18" data-name="Line 18" x1="786" y1="276" transform="translate(6444.5 1752.5)" fill="none" stroke="#152c57" stroke-width="10"/>
          <line id="Line_19" data-name="Line 19" x1="515" y1="522" transform="translate(6715.5 1506.5)" fill="none" stroke="#152c57" stroke-width="10"/>
          <line id="Line_16" data-name="Line 16" x1="737" y2="261" transform="translate(6685.5 1739.5)" fill="none" stroke="#152c57" stroke-width="10"/>
          <line id="Line_17" data-name="Line 17" x1="148" y1="420" transform="translate(6641.5 2028.5)" fill="none" stroke="#152c57" stroke-width="10"/>
          <line id="Line_13" data-name="Line 13" x1="126" y2="346" transform="translate(7104.5 2065.5)" fill="none" stroke="#152c57" stroke-width="10"/>
          <g transform="matrix(1, 0, 0, 1, 5749, 1149)" filter="url(#Rectangle_3)">
            <rect id="Rectangle_3-2" data-name="Rectangle 3" width="408" height="365" rx="15" transform="translate(213 6)" fill="#061738"/>
          </g>
          <g transform="matrix(1, 0, 0, 1, 5749, 1149)" filter="url(#Rectangle_9)">
            <rect id="Rectangle_9-2" data-name="Rectangle 9" width="408" height="365" rx="15" transform="translate(9 734)" fill="#061738"/>
          </g>
          <g transform="matrix(1, 0, 0, 1, 5749, 1149)" filter="url(#Rectangle_7)">
            <rect id="Rectangle_7-2" data-name="Rectangle 7" width="147" height="131" rx="15" transform="translate(607 553)" fill="#061738"/>
          </g>
          <g transform="matrix(1, 0, 0, 1, 5749, 1149)" filter="url(#Rectangle_11)">
            <rect id="Rectangle_11-2" data-name="Rectangle 11" width="147" height="131" rx="15" transform="translate(893 292)" fill="#061738"/>
          </g>
          <g transform="matrix(1, 0, 0, 1, 5749, 1149)" filter="url(#Rectangle_10)">
            <rect id="Rectangle_10-2" data-name="Rectangle 10" width="147" height="131" rx="15" transform="translate(863 786)" fill="#061738"/>
          </g>
          <g transform="matrix(1, 0, 0, 1, 5749, 1149)" filter="url(#Rectangle_18)">
            <rect id="Rectangle_18-2" data-name="Rectangle 18" width="147" height="131" rx="15" transform="translate(937 1256)" fill="#061738"/>
          </g>
          <g transform="matrix(1, 0, 0, 1, 5749, 1149)" filter="url(#Rectangle_19)">
            <rect id="Rectangle_19-2" data-name="Rectangle 19" width="147" height="131" rx="15" transform="translate(1308 1256)" fill="#061738"/>
          </g>
          <line id="Line_8" data-name="Line 8" x1="281" y2="276" transform="translate(7458.5 1476.5)" fill="none" stroke="#152c57" stroke-width="10"/>
          <line id="Line_10" data-name="Line 10" x1="341" y1="313" transform="translate(7422.5 1752.5)" fill="none" stroke="#152c57" stroke-width="10"/>
          <line id="Line_7" data-name="Line 7" x1="242" y1="420" transform="translate(7698.5 1476.5)" fill="none" stroke="#152c57" stroke-width="10"/>
          <line id="Line_11" data-name="Line 11" x2="215" y2="233" transform="translate(7207.5 1506.5)" fill="none" stroke="#152c57" stroke-width="10"/>
          <line id="Line_12" data-name="Line 12" x1="207" y2="276" transform="translate(7251.5 1752.5)" fill="none" stroke="#152c57" stroke-width="10"/>
          <g transform="matrix(1, 0, 0, 1, 5749, 1149)" filter="url(#Rectangle_12)">
            <rect id="Rectangle_12-2" data-name="Rectangle 12" width="408" height="365" rx="15" transform="translate(1774 6)" fill="#061738"/>
          </g>
          <g transform="matrix(1, 0, 0, 1, 5749, 1149)" filter="url(#Rectangle_15)">
            <rect id="Rectangle_15-2" data-name="Rectangle 15" width="408" height="365" rx="15" transform="translate(1978 734)" fill="#061738"/>
          </g>
          <g transform="matrix(1, 0, 0, 1, 5749, 1149)" filter="url(#Rectangle_13)">
            <rect id="Rectangle_13-2" data-name="Rectangle 13" width="147" height="131" rx="15" transform="translate(1600 538)" fill="#061738"/>
          </g>
          <g transform="matrix(1, 0, 0, 1, 5749, 1149)" filter="url(#Rectangle_16)">
            <rect id="Rectangle_16-2" data-name="Rectangle 16" width="147" height="131" rx="15" transform="translate(1355 292)" fill="#061738"/>
          </g>
          <g transform="matrix(1, 0, 0, 1, 5749, 1149)" filter="url(#Rectangle_17)">
            <rect id="Rectangle_17-2" data-name="Rectangle 17" width="147" height="131" rx="15" transform="translate(1385 786)" fill="#061738"/>
          </g>
        </g>
      </g>
    </g>
  </g>
</svg>
