<svg xmlns="http://www.w3.org/2000/svg" width="586.843" height="586.843" viewBox="0 0 586.843 586.843">
  <g id="blockchain" transform="translate(-7415 -2287)">
    <g id="Group_4" data-name="Group 4" transform="translate(7465.589 2337.589)">
      <path id="Path_4" data-name="Path 4" d="M276.965,287.085H44.253a10.119,10.119,0,0,1-10.12-10.12V44.253a10.119,10.119,0,0,1,10.12-10.12H276.965a10.116,10.116,0,0,1,10.12,10.12V276.965A10.116,10.116,0,0,1,276.965,287.085Zm-222.6-20.235H266.851V54.367H54.367Zm0,0" transform="translate(-34.133 -34.133)" fill="#152c57"/>
      <path id="Path_5" data-name="Path 5" d="M227.232,126.293A121.416,121.416,0,1,0,348.645,247.712,121.415,121.415,0,0,0,227.232,126.293Zm0,0" transform="translate(0.426 10.301)" fill="#152c57"/>
      <path id="Path_6" data-name="Path 6" d="M230.522,382.538C157.99,382.538,98.988,323.53,98.988,251s59-131.539,131.533-131.539S362.055,178.478,362.055,251,303.048,382.538,230.522,382.538Zm0-242.832A111.3,111.3,0,1,0,341.821,251,111.422,111.422,0,0,0,230.522,139.705Zm0,0" transform="translate(-2.864 7.008)" fill="#152c57"/>
    </g>
    <path id="Path_7" data-name="Path 7" d="M108.007,57.417A50.589,50.589,0,1,1,57.417,6.828,50.588,50.588,0,0,1,108.007,57.417Zm0,0" transform="translate(7418.292 2290.292)" fill="#152c57"/>
    <path id="Path_8" data-name="Path 8" d="M60.71,121.419a60.71,60.71,0,1,1,60.71-60.71A60.778,60.778,0,0,1,60.71,121.419Zm0-101.184A40.472,40.472,0,1,0,101.179,60.71,40.516,40.516,0,0,0,60.71,20.235Zm0,0" transform="translate(7415 2287)" fill="#c7ffeb"/>
    <path id="Path_9" data-name="Path 9" d="M265.018,57.417A50.589,50.589,0,1,1,214.429,6.828,50.588,50.588,0,0,1,265.018,57.417Zm0,0" transform="translate(7493.993 2290.292)" fill="#152c57"/>
    <path id="Path_10" data-name="Path 10" d="M217.721,121.419a60.71,60.71,0,1,1,60.709-60.71A60.778,60.778,0,0,1,217.721,121.419Zm0-101.184A40.472,40.472,0,1,0,258.2,60.71,40.511,40.511,0,0,0,217.721,20.235Zm0,0" transform="translate(7490.7 2287)" fill="#c7ffeb"/>
    <path id="Path_11" data-name="Path 11" d="M108.007,214.429A50.589,50.589,0,1,1,57.417,163.84,50.588,50.588,0,0,1,108.007,214.429Zm0,0" transform="translate(7418.292 2365.992)" fill="#152c57"/>
    <path id="Path_12" data-name="Path 12" d="M60.71,278.431a60.71,60.71,0,1,1,60.71-60.709A60.778,60.778,0,0,1,60.71,278.431Zm0-101.179a40.472,40.472,0,1,0,40.469,40.469A40.515,40.515,0,0,0,60.71,177.252Zm0,0" transform="translate(7415 2362.7)" fill="#c7ffeb"/>
    <path id="Path_13" data-name="Path 13" d="M433.981,444.1H201.263a10.106,10.106,0,0,1-10.114-10.114V201.263a10.106,10.106,0,0,1,10.114-10.114H433.981A10.106,10.106,0,0,1,444.1,201.263V433.981A10.106,10.106,0,0,1,433.981,444.1Zm-222.6-20.235H423.861V211.383H211.383Zm0,0" transform="translate(7507.159 2379.159)" fill="#152c57"/>
    <path id="Path_14" data-name="Path 14" d="M422.036,214.429a50.592,50.592,0,1,1-50.589-50.589A50.588,50.588,0,0,1,422.036,214.429Zm0,0" transform="translate(7569.693 2365.992)" fill="#152c57"/>
    <path id="Path_15" data-name="Path 15" d="M374.737,278.431a60.71,60.71,0,1,1,60.7-60.709A60.778,60.778,0,0,1,374.737,278.431Zm0-101.179a40.472,40.472,0,1,0,40.469,40.469A40.511,40.511,0,0,0,374.737,177.252Zm0,0" transform="translate(7566.403 2362.7)" fill="#c7ffeb"/>
    <path id="Path_16" data-name="Path 16" d="M265.018,371.447a50.589,50.589,0,1,1-50.589-50.6A50.588,50.588,0,0,1,265.018,371.447Zm0,0" transform="translate(7493.993 2441.693)" fill="#152c57"/>
    <path id="Path_17" data-name="Path 17" d="M217.721,435.441a60.707,60.707,0,1,1,60.709-60.7A60.773,60.773,0,0,1,217.721,435.441Zm0-101.179A40.472,40.472,0,1,0,258.2,374.737,40.511,40.511,0,0,0,217.721,334.262Zm0,0" transform="translate(7490.7 2438.403)" fill="#c7ffeb"/>
    <path id="Path_18" data-name="Path 18" d="M422.036,371.447a50.592,50.592,0,1,1-50.589-50.6A50.588,50.588,0,0,1,422.036,371.447Zm0,0" transform="translate(7569.693 2441.693)" fill="#152c57"/>
    <path id="Path_19" data-name="Path 19" d="M374.737,435.441a60.707,60.707,0,1,1,60.7-60.7A60.773,60.773,0,0,1,374.737,435.441Zm0-101.179a40.472,40.472,0,1,0,40.469,40.475A40.512,40.512,0,0,0,374.737,334.262Zm0,0" transform="translate(7566.403 2438.403)" fill="#c7ffeb"/>
    <path id="Path_20" data-name="Path 20" d="M237.468,116.055A121.416,121.416,0,1,0,358.887,237.468,121.413,121.413,0,0,0,237.468,116.055Zm0,0" transform="translate(7470.954 2342.954)" fill="#d7e9ff"/>
    <path id="Path_21" data-name="Path 21" d="M240.76,372.293c-72.532,0-131.533-59.007-131.533-131.533s59-131.533,131.533-131.533S372.293,168.234,372.293,240.76,313.286,372.293,240.76,372.293Zm0-242.832a111.3,111.3,0,1,0,111.3,111.3A111.426,111.426,0,0,0,240.76,129.461Zm0,0" transform="translate(7467.662 2339.662)" fill="#c7ffeb"/>
    <path id="Path_22" data-name="Path 22" d="M146.208,199.793a10.122,10.122,0,0,1-9.055-14.624,100.816,100.816,0,0,1,68.167-53.687,10.122,10.122,0,0,1,4.481,19.742,80.64,80.64,0,0,0-54.526,42.953A10.11,10.11,0,0,1,146.208,199.793Zm0,0" transform="translate(7480.616 2350.268)" fill="#152c57"/>
    <path id="Path_23" data-name="Path 23" d="M175.887,160.82a1.67,1.67,0,0,1,1.772-1.766h44.759c25.48,0,37.5,12.737,37.5,32.022,0,13.629-6.363,21.4-13.97,25.474v.353c7.434,2.837,16.1,12.39,16.1,27.078,0,23.876-15.036,35.38-41.4,35.38H177.658a1.676,1.676,0,0,1-1.772-1.766Zm46,48.3c10.612,0,17.166-6.363,17.166-15.742,0-9.553-6.554-15.927-17.166-15.927H197.823a.941.941,0,0,0-1.059,1.059v29.556a.937.937,0,0,0,1.059,1.054Zm-24.067,51.846H222.95c11.678,0,18.22-6.728,18.22-16.807,0-9.912-6.542-16.639-18.22-16.639H197.823a.941.941,0,0,0-1.059,1.065V259.9A.941.941,0,0,0,197.823,260.963Zm0,0" transform="translate(7499.801 2363.685)" fill="#152c57"/>
    <path id="Path_24" data-name="Path 24" d="M201.263,183.834a10.111,10.111,0,0,1-10.114-10.12V153.48a10.117,10.117,0,1,1,20.235,0v20.235A10.116,10.116,0,0,1,201.263,183.834Zm0,0" transform="translate(7507.159 2356.118)" fill="#152c57"/>
    <path id="Path_25" data-name="Path 25" d="M201.263,262.46a10.106,10.106,0,0,1-10.114-10.114v-10.12a10.117,10.117,0,1,1,20.235,0v10.12A10.111,10.111,0,0,1,201.263,262.46Zm0,0" transform="translate(7507.159 2398.906)" fill="#152c57"/>
    <path id="Path_26" data-name="Path 26" d="M153.48,292.815a10.119,10.119,0,0,1-10.12-10.12V242.226a10.117,10.117,0,1,1,20.235,0v40.469A10.114,10.114,0,0,1,153.48,292.815Zm0,0" transform="translate(7484.118 2398.906)" fill="#152c57"/>
    <path id="Path_27" data-name="Path 27" d="M180.3,266H139.827a10.117,10.117,0,1,1,0-20.235H180.3a10.117,10.117,0,1,1,0,20.235Zm0,0" transform="translate(7477.536 2405.49)" fill="#152c57"/>
  </g>
</svg>
