<svg id="Layer_x0020_1" xmlns="http://www.w3.org/2000/svg" width="59.062" height="52.19" viewBox="0 0 59.062 52.19">
  <path id="Path_29" data-name="Path 29" d="M5.48,0H38.14a2.368,2.368,0,0,0,.26.79L30.7,14.12a2.746,2.746,0,0,0-.57.05,2.381,2.381,0,0,0-.75.29,2.438,2.438,0,0,0-.88.86H13.12a2.483,2.483,0,0,0-4.52.64,2.51,2.51,0,0,0,.22,1.85L1.28,30.87A2.661,2.661,0,0,0,0,31.25V5.48A5.5,5.5,0,0,1,5.48,0ZM54.45,32.34l-3.43-.01c-.15,0-.21.06-.21.26v2.02c0,.23.02.28.18.28l3.46.02a2.5,2.5,0,0,0,1.48,1.11,2.429,2.429,0,0,0,1.89-.25,2.471,2.471,0,0,0,.91-3.39,2.486,2.486,0,0,0-3.4-.91,3.139,3.139,0,0,0-.57.45A2.529,2.529,0,0,0,54.45,32.34ZM32.78,33.83h0a.956.956,0,0,0,1.66-.95l-5.3-9.19-.01-.02a.965.965,0,0,0-1.31-.35.954.954,0,0,0-.35,1.31l5.3,9.18ZM42.8,27.62h0a.959.959,0,1,0,1.66-.96l-5.31-9.18-.01-.02a.952.952,0,0,0-1.31-.35.969.969,0,0,0-.35,1.31l5.31,9.18ZM42.97,0h.17a5.5,5.5,0,0,1,5.49,5.48V32.34H41.3L32.85,17.71a2.429,2.429,0,0,0,.26-1.09,2.556,2.556,0,0,0-.25-1.1L40.63,2.07a2.053,2.053,0,0,0,.49-.06,2.356,2.356,0,0,0,.66-.27A2.4,2.4,0,0,0,42.92.26,2.381,2.381,0,0,0,42.97,0Zm5.66,34.91V52.19H32.54a2.505,2.505,0,0,0,.26-2.78l8.37-14.5h7.46ZM28.71,52.19H12.91a2.73,2.73,0,0,0,.21-.3H28.5a2.025,2.025,0,0,0,.21.3Zm-19.63,0H5.48A5.5,5.5,0,0,1,0,46.7V35.89a2.684,2.684,0,0,0,1.23.37L8.82,49.41a2.445,2.445,0,0,0-.31,1.12,2.516,2.516,0,0,0,.33,1.32,4.145,4.145,0,0,0,.24.34ZM3.59,32.01a2.694,2.694,0,0,1,.33.63,2.6,2.6,0,0,1,.16.93,2.755,2.755,0,0,1-.17.95,2.658,2.658,0,0,1-.35.64l7.49,12.96a2.552,2.552,0,0,1,1.12.29,2.508,2.508,0,0,1,.95.91H28.5a2.529,2.529,0,0,1,.31-.42,2.575,2.575,0,0,1,.57-.45,3.012,3.012,0,0,1,.68-.27,2.22,2.22,0,0,1,.51-.06l3.89-6.73h0l4.49-7.78-4.72-8.18h0l-3.65-6.34a2.6,2.6,0,0,1-1.13-.29,2.439,2.439,0,0,1-.95-.91H13.12a2.529,2.529,0,0,1-.31.42,2.575,2.575,0,0,1-.57.45,3.012,3.012,0,0,1-.68.27,2.22,2.22,0,0,1-.51.06L3.59,32.01Z" fill="#152c57" fill-rule="evenodd"/>
</svg>
