<svg xmlns="http://www.w3.org/2000/svg" xmlns:xlink="http://www.w3.org/1999/xlink" width="496" height="464" viewBox="0 0 496 464">
  <defs>
    <linearGradient id="linear-gradient" x1="-9.858" y1="16.037" x2="12.106" y2="-16.909" gradientUnits="objectBoundingBox">
      <stop offset="0" stop-color="#003f8a"/>
      <stop offset="0.518" stop-color="#00d7df"/>
      <stop offset="1" stop-color="#006df0"/>
    </linearGradient>
    <linearGradient id="linear-gradient-2" x1="-1.326" y1="2.326" x2="1.42" y2="-0.42" gradientUnits="objectBoundingBox">
      <stop offset="0" stop-color="#003f8a"/>
      <stop offset="0.518" stop-color="#00d7df"/>
      <stop offset="1" stop-color="#c7ffeb"/>
    </linearGradient>
  </defs>
  <g id="Chart" transform="translate(-8 -16)">
    <path id="Path_39" data-name="Path 39" d="M360,256A120,120,0,1,0,240,136,120,120,0,0,0,360,256Zm0-224A104,104,0,1,1,256,136,104,104,0,0,1,360,32Z" fill="#152c57"/>
    <path id="Path_40" data-name="Path 40" d="M464,464H408V280a8,8,0,0,0-8-8H320a8,8,0,0,0-8,8V464H280V248a8,8,0,0,0-8-8H192a8,8,0,0,0-8,8V464H152V152a8,8,0,0,0-8-8H64a8,8,0,0,0-8,8V464H16a8,8,0,0,0,0,16H464a8,8,0,0,0,0-16ZM72,464V160h64V464Zm128,0V256h64V464Zm128,0V288h64V464Z" fill="#152c57"/>
    <path id="Path_41" data-name="Path 41" d="M496,464h-8a8,8,0,0,0,0,16h8a8,8,0,0,0,0-16Z" fill="url(#linear-gradient)"/>
    <g id="Group_7" data-name="Group 7">
      <path id="Path_42" data-name="Path 42" d="M360,232a96,96,0,1,0-96-96A96,96,0,0,0,360,232Zm0-176a80,80,0,1,1-80,80,80,80,0,0,1,80-80Z" fill="url(#linear-gradient-2)"/>
      <path id="Path_43" data-name="Path 43" d="M336,160a8,8,0,0,0,0,16h16a8,8,0,0,0,16,0h16a8,8,0,0,0,8-8V136a8,8,0,0,0-8-8H344V112h40a8,8,0,0,0,0-16H368a8,8,0,0,0-16,0H336a8,8,0,0,0-8,8v32a8,8,0,0,0,8,8h40v16Z" fill="#152c57"/>
    </g>
  </g>
</svg>
