<svg xmlns="http://www.w3.org/2000/svg" xmlns:xlink="http://www.w3.org/1999/xlink" width="482.689" height="464" viewBox="0 0 482.689 464">
  <defs>
    <linearGradient id="linear-gradient" x1="0.051" y1="0.033" x2="0.851" y2="0.866" gradientUnits="objectBoundingBox">
      <stop offset="0" stop-color="#00ce84"/>
      <stop offset="1" stop-color="#152c57"/>
      <stop offset="1" stop-color="#5a5da8"/>
    </linearGradient>
  </defs>
  <g id="Group_8" data-name="Group 8" transform="translate(-12307 -1874)">
    <path id="honeycomb" d="M456,156.281l37.781-25.187A8,8,0,0,0,496,120h0a8,8,0,0,0-11.094-2.219L448,142.385l-40-26.666V80a8,8,0,0,0-8-8h0a8,8,0,0,0-8,8v35.719l-44.437,29.625A8,8,0,0,0,344,152v43.719l-40,26.667-40-26.667V152a8,8,0,0,0-3.562-6.656L216,115.719V72a8,8,0,0,0-3.562-6.656L168,35.719V32a8,8,0,0,0-8-8h0a8,8,0,0,0-8,8v3.719L112,62.385,72,35.719V32a8,8,0,0,0-8-8h0a8,8,0,0,0-8,8v3.719L18.219,60.906A8,8,0,0,0,16,72h0a8,8,0,0,0,11.094,2.219L64,49.615l40,26.666v39.438L66.219,140.906A8,8,0,0,0,64,152h0a8,8,0,0,0,11.094,2.219L112,129.615l40,26.667v39.438l-44.437,29.625A8,8,0,0,0,104,232v43.719L59.563,305.344A8,8,0,0,0,56,312v43.719L18.219,380.906A8,8,0,0,0,16,392h0a8,8,0,0,0,11.094,2.219L64,369.615l40,26.666V432a8,8,0,0,0,8,8h0a8,8,0,0,0,8-8V396.281l44.438-29.625A8,8,0,0,0,168,360V316.281l40-26.667,40,26.667V360a8,8,0,0,0,3.563,6.656L296,396.281V440a8,8,0,0,0,3.563,6.656L344,476.281V480a8,8,0,0,0,8,8h0a8,8,0,0,0,8-8v-3.719l44.438-29.625A8,8,0,0,0,408,440V392a8,8,0,0,0-3.562-6.656L360,355.719V316.281l40-26.667,36.906,24.6A8,8,0,0,0,448,312h0a8,8,0,0,0-2.219-11.094L408,275.719V236.281l40-26.666,36.906,24.6A8,8,0,0,0,496,232h0a8,8,0,0,0-2.219-11.094L456,195.719Zm-96,0,40-26.666,40,26.666v39.438l-40,26.666-40-26.666Zm32,119.438-40,26.666-40-26.666V236.281l40-26.666,40,26.666Zm-144-80-40,26.666-40-26.666V156.281l40-26.666,40,26.666ZM120,76.281l40-26.666,40,26.666v39.438l-40,26.666-40-26.666Zm0,160,40-26.666,40,26.666v39.438l-40,26.666-40-26.666Zm32,119.438-40,26.666L72,355.719V316.281l40-26.666,40,26.666Zm64-119.437,40-26.666,40,26.666v39.438l-40,26.666-40-26.666Zm48,80,40-26.666,40,26.666v39.438l-40,26.666-40-26.666ZM392,435.719l-40,26.666-40-26.666V396.281l40-26.666,40,26.666Z" transform="translate(12292.345 1850)" fill="url(#linear-gradient)"/>
  </g>
</svg>
