<svg xmlns="http://www.w3.org/2000/svg" width="370.883" height="370.883" viewBox="0 0 370.883 370.883">
  <path id="fast-delivery" d="M228.315,36.892A107.676,107.676,0,1,0,335.991,144.568,107.8,107.8,0,0,0,228.315,36.892ZM323.722,150.55a95.17,95.17,0,0,1-23.73,57.23l-8.225-8.225-8.459,8.459,8.225,8.225A95.172,95.172,0,0,1,234.3,239.974V228.315H222.333v11.659A95.173,95.173,0,0,1,165.1,216.238l8.225-8.225-8.459-8.459-8.225,8.225a95.165,95.165,0,0,1-23.731-57.23h11.659V138.586H132.909a95.171,95.171,0,0,1,23.731-57.23l8.225,8.225,8.459-8.459L165.1,72.9a95.172,95.172,0,0,1,57.236-23.737V60.82H234.3V49.161A95.173,95.173,0,0,1,291.533,72.9l-8.225,8.225,8.459,8.459,8.225-8.225a95.165,95.165,0,0,1,23.731,57.23H312.063V150.55ZM234.3,127.722V84.748H222.333v42.975a17.9,17.9,0,1,0,22.827,22.827h25.029V138.586H245.161A17.928,17.928,0,0,0,234.3,127.722Zm-5.982,22.827a5.982,5.982,0,1,1,5.982-5.982A5.988,5.988,0,0,1,228.315,150.55ZM338.6,72.826l6.963-14.052L314.1,27.321l-14.052,6.963A129.779,129.779,0,0,0,255.575,15.9L250.556,1H206.068l-5.025,14.9a129.9,129.9,0,0,0-44.476,18.383l-14.04-6.963L111.068,58.774l6.963,14.052a129.93,129.93,0,0,0-18.389,44.482l-14.9,5.019v44.482l6.879,2.321A101.678,101.678,0,1,0,203.753,281.262l2.321,6.873h44.488l5.025-14.9a129.9,129.9,0,0,0,44.476-18.383l14.052,6.963,31.453-31.453-6.963-14.052a129.93,129.93,0,0,0,18.389-44.482l14.889-5.019V122.327l-14.9-5.025A129.888,129.888,0,0,0,338.6,72.826ZM102.694,359.919c-10.265,0-21.218-13.543-28.289-35.892h56.578C123.912,346.376,112.959,359.919,102.694,359.919ZM71.2,312.063a188.707,188.707,0,0,1-4.265-35.892h71.515a189.68,189.68,0,0,1-4.265,35.892ZM13.269,276.171H54.975a203.707,203.707,0,0,0,4,35.892H23.4a89,89,0,0,1-10.127-35.892Zm0-11.964A89,89,0,0,1,23.4,228.315H58.977a203.708,203.708,0,0,0-4,35.892Zm137.143,11.964h41.706a89,89,0,0,1-10.128,35.892H146.41A203.127,203.127,0,0,0,150.412,276.171Zm.006-11.964c-.054-2.076-.12-4.134-.233-6.191l6.389-3.17a129.569,129.569,0,0,0,17.3,9.356H150.418Zm-12.257-6.76c.138,2.243.233,4.492.293,6.76H66.933A189.678,189.678,0,0,1,71.2,228.315h40.881l-1.011,2.046Zm-20.147-41.1H74.4c6.891-21.78,17.461-35.12,27.5-35.784a129.832,129.832,0,0,0,16.127,35.748ZM76.8,184.306c-6.048,8.135-11.115,19.077-14.859,32.045H31.077A89.922,89.922,0,0,1,76.8,184.306ZM31.077,324.027H61.938C65.689,337,70.756,347.937,76.8,356.072A89.931,89.931,0,0,1,31.077,324.027Zm97.506,32.045c6.048-8.135,11.115-19.077,14.859-32.045H174.3A89.882,89.882,0,0,1,128.584,356.072ZM359.919,158.218l-13.382,4.51-.634,3.47a118.216,118.216,0,0,1-19.124,46.253l-2,2.9,6.251,12.622-19.3,19.3-12.616-6.251-2.9,2a118.205,118.205,0,0,1-46.253,19.124l-3.47.628-4.516,13.4h-27.3l-4.516-13.388-3.47-.628a118.258,118.258,0,0,1-46.253-19.124l-2.9-2-12.616,6.251-19.3-19.3,6.251-12.622-2-2.9a118.341,118.341,0,0,1-19.124-46.253l-.634-3.47-13.388-4.522v-27.3l13.382-4.51.634-3.47a118.215,118.215,0,0,1,19.124-46.253l2-2.9L125.6,61.167l19.3-19.3,12.616,6.251,2.9-2a118.206,118.206,0,0,1,46.253-19.124l3.47-.628,4.516-13.4h27.3l4.516,13.388,3.47.628A118.258,118.258,0,0,1,296.2,46.1l2.9,2,12.616-6.251,19.3,19.3-6.251,12.622,2,2.9A118.342,118.342,0,0,1,345.9,122.925l.634,3.47,13.388,4.522Zm-144.6,193.236,2.064,11.79c-4.032.7-8.2,1.28-12.383,1.711l-1.226-11.9C207.677,352.651,211.566,352.112,215.322,351.454ZM101.509,42.042,95.432,31.735c3.464-2.046,7.017-3.978,10.558-5.755l5.36,10.69c-3.338,1.687-6.628,3.482-9.84,5.372ZM92.4,47.821l-6.724-9.894A179.891,179.891,0,0,0,15.219,133a18.086,18.086,0,1,0,12.024,1.729A167.9,167.9,0,0,1,92.4,47.821ZM18.946,156.532a5.982,5.982,0,1,1,5.982-5.982A5.988,5.988,0,0,1,18.946,156.532Zm299.1,125.622A17.968,17.968,0,0,0,300.1,300.1a17.763,17.763,0,0,0,1.753,7.609,166.813,166.813,0,0,1-74.978,41.318l2.877,11.611a178.782,178.782,0,0,0,80.511-44.44,17.75,17.75,0,0,0,7.783,1.848,17.946,17.946,0,0,0,0-35.892Zm0,23.928a5.982,5.982,0,1,1,5.982-5.982A5.988,5.988,0,0,1,318.045,306.081Z" transform="translate(-1 -1)" fill="#152c57"/>
</svg>
