<svg xmlns="http://www.w3.org/2000/svg" width="1607.267" height="1582.293" viewBox="0 0 1607.267 1582.293">
  <g id="international" transform="translate(-0.974 -1.438)">
    <g id="Group_9" data-name="Group 9" transform="translate(468.08 443.57)">
      <path id="Path_44" data-name="Path 44" d="M188.593,577.145a1486.534,1486.534,0,0,1-11.3,185.406c197.533-36.718,322.251-113.938,322.251-185.406C499.184,307.134,309.761,74.277,45.477,18.959c85.512,100.49,143.116,310.176,143.116,558.186Z" transform="translate(640.615 -7.065)" fill="#c7ffeb"/>
      <path id="Path_45" data-name="Path 45" d="M589.08,795.882a1410.6,1410.6,0,0,0,194.112-13.19A1410.622,1410.622,0,0,0,796.382,588.58c0-335.959-109.248-570.08-207.3-570.08C274.382,18.857,19.357,273.882,19,588.58,19,686.634,253.121,795.882,589.08,795.882Z" transform="translate(-19 -18.5)" fill="#c7ffeb"/>
      <path id="Path_46" data-name="Path 46" d="M169.262,168.762c-23.684,139.773-67.736,252.52-123.785,318.39A571.843,571.843,0,0,0,487.652,44.977C421.808,101.026,309.035,145.052,169.262,168.762Z" transform="translate(640.615 641.115)" fill="#c7ffeb"/>
      <path id="Path_47" data-name="Path 47" d="M763.051,176.8a1486.56,1486.56,0,0,1-185.406,11.3c-248.011,0-457.7-57.6-558.186-143.116C74.777,309.261,307.634,498.684,577.645,499.046,649.113,499.046,726.333,374.328,763.051,176.8Z" transform="translate(-7.565 641.115)" fill="#c7ffeb"/>
    </g>
    <path id="Path_48" data-name="Path 48" d="M846.017,468.835l155.632-143.686a181.778,181.778,0,1,0-35.138-38.066L810.8,430.8a296.6,296.6,0,0,0-153.248-73.851l10.624-148.48a104.3,104.3,0,1,0-51.67-3.991l-10.6,148.635a296.234,296.234,0,0,0-177.347,62.346L258.187,230.8a142.727,142.727,0,1,0-38.04,35.189L390.6,450.67a296.493,296.493,0,0,0-76.676,174.289H205.273a103.651,103.651,0,1,0,0,51.826H313.925a296.571,296.571,0,0,0,77.3,175.066L285.188,967.526a181.726,181.726,0,1,0,38.2,35.034L429.418,886.911A296.079,296.079,0,0,0,605.91,948.635l10.6,148.635a103.081,103.081,0,1,0,51.67-3.99L657.58,944.8a296.753,296.753,0,0,0,154-74.551l86.937,79.682a220.647,220.647,0,1,0,35.008-38.221l-86.885-79.656a295.9,295.9,0,0,0,60.636-155.269h107.564a142.52,142.52,0,1,0,0-51.825H907.275a296.259,296.259,0,0,0-61.258-156.124ZM1115.9,54.879A129.564,129.564,0,1,1,986.335,184.443,129.564,129.564,0,0,1,1115.9,54.879ZM597.643,106.7a51.825,51.825,0,1,1,51.825,51.825A51.825,51.825,0,0,1,597.643,106.7ZM53.476,145.574a90.695,90.695,0,1,1,90.695,90.695,90.695,90.695,0,0,1-90.695-90.695ZM105.3,702.7a51.825,51.825,0,1,1,51.825-51.825A51.825,51.825,0,0,1,105.3,702.7Zm77.738,544.167A129.564,129.564,0,1,1,312.6,1117.3,129.563,129.563,0,0,1,183.04,1246.865Zm518.255-51.825a51.825,51.825,0,1,1-51.826-51.825A51.825,51.825,0,0,1,701.294,1195.04Zm544.167-116.607A168.433,168.433,0,1,1,1077.029,910,168.433,168.433,0,0,1,1245.462,1078.432ZM610.6,897.043c-135.957,0-246.171-110.215-246.171-246.171S474.643,404.7,610.6,404.7,856.771,514.916,856.771,650.872c-.157,135.891-110.28,246.014-246.171,246.171Zm544.167-336.866a90.695,90.695,0,1,1-90.694,90.695,90.695,90.695,0,0,1,90.694-90.695Z" transform="translate(0 0)" fill="#152c57"/>
    <path id="Path_49" data-name="Path 49" d="M49.413,19a25.913,25.913,0,0,0,0,51.825,142.7,142.7,0,0,1,142.52,142.52,25.913,25.913,0,1,0,51.826,0C243.644,106.059,156.7,19.114,49.413,19Z" transform="translate(561.187 437.527)" fill="#152c57"/>
  </g>
</svg>
