<svg id="meter" xmlns="http://www.w3.org/2000/svg" width="512" height="512" viewBox="0 0 512 512">
  <path id="Path_31" data-name="Path 31" d="M437.02,74.98A256,256,0,0,0,74.98,437.02,256,256,0,0,0,437.02,74.98Z" fill="#152c57"/>
  <path id="Path_32" data-name="Path 32" d="M437.02,437.02A256,256,0,0,0,256,0V512A254.331,254.331,0,0,0,437.02,437.02Z" fill="#152c57"/>
  <path id="Path_33" data-name="Path 33" d="M392.913,121.54a14.93,14.93,0,0,0-1.148-1.305,14.628,14.628,0,0,0-1.3-1.148,191.643,191.643,0,0,0-268.921,0,15.073,15.073,0,0,0-1.3,1.147,14.766,14.766,0,0,0-1.148,1.305,191.822,191.822,0,0,0,1.148,270.224h0s0,0,0,0a14.769,14.769,0,0,0,20.886,0c.011-.011.021-.024.032-.035l48.7-48.7a14.769,14.769,0,1,0-20.887-20.887L131.15,359.961A160.942,160.942,0,0,1,94.207,270.77h53.485a14.769,14.769,0,0,0,0-29.538H94.217A161.735,161.735,0,0,1,131.21,152.1l37.762,37.762a14.769,14.769,0,0,0,20.886-20.887L152.1,131.211a161.741,161.741,0,0,1,89.135-36.993v53.475a14.769,14.769,0,0,0,29.538,0V94.217A161.735,161.735,0,0,1,359.9,131.21l-37.762,37.762a14.769,14.769,0,1,0,20.886,20.887L380.789,152.1a161.735,161.735,0,0,1,36.993,89.134H364.308a14.769,14.769,0,0,0,0,29.538h53.485a160.919,160.919,0,0,1-36.945,89.192l-37.819-37.82a14.769,14.769,0,1,0-20.887,20.887l48.736,48.736c.36.36.735.7,1.121,1.014a14.771,14.771,0,0,0,19.765-1.014,191.821,191.821,0,0,0,1.149-270.224Z" fill="#c7ffeb"/>
  <path id="Path_34" data-name="Path 34" d="M270.769,147.692V94.217A161.735,161.735,0,0,1,359.9,131.21l-37.762,37.762a14.769,14.769,0,1,0,20.886,20.887L380.789,152.1a161.735,161.735,0,0,1,36.993,89.134H364.308a14.769,14.769,0,0,0,0,29.538h53.485a160.919,160.919,0,0,1-36.945,89.192l-37.819-37.82a14.769,14.769,0,1,0-20.887,20.887l48.736,48.736c.36.36.735.7,1.121,1.014a14.771,14.771,0,0,0,19.765-1.014,191.821,191.821,0,0,0,1.149-270.224,14.93,14.93,0,0,0-1.148-1.305,14.628,14.628,0,0,0-1.3-1.148A191.361,191.361,0,0,0,256,64v98.462A14.769,14.769,0,0,0,270.769,147.692Z" fill="#c7ffeb"/>
  <path id="Path_35" data-name="Path 35" d="M293.791,302.792,270.442,193.829a14.769,14.769,0,0,0-28.882,0L218.211,302.792a38.648,38.648,0,1,0,75.58,0Z" fill="#ff6426"/>
  <path id="Path_36" data-name="Path 36" d="M286.055,335.187a38.474,38.474,0,0,0,7.734-32.395L270.44,193.828A14.767,14.767,0,0,0,256,182.153V349.538A38.476,38.476,0,0,0,286.055,335.187Z" fill="#d03b00"/>
  <path id="Path_37" data-name="Path 37" d="M256,359.385a44.307,44.307,0,1,0,44.308,44.307A44.358,44.358,0,0,0,256,359.385Z" fill="#fea832"/>
  <path id="Path_38" data-name="Path 38" d="M300.308,403.692A44.358,44.358,0,0,0,256,359.384V448A44.358,44.358,0,0,0,300.308,403.692Z" fill="#ed8c18"/>
</svg>
