<svg id="Layer_x0020_1" xmlns="http://www.w3.org/2000/svg" width="447.654" height="146.49" viewBox="0 0 447.654 146.49">
  <g id="_1115668896">
    <g id="Group_5" data-name="Group 5" transform="translate(618.958 144.518)">
      <text id="Pi" transform="translate(-431.046 -62.08)" fill="#152c57" font-size="73" font-family="Helvetica-Bold, Helvetica" font-weight="700"><tspan x="0" y="0">Pi</tspan></text>
      <text id="Chain" transform="translate(-362.303 -62.08)" fill="#152c57" font-size="73" font-family="Helvetica"><tspan x="0" y="0">Chain</tspan></text>
    </g>
    <text id="NETWORK" transform="translate(193.84 123.34)" fill="#152c57" font-size="31.49" font-family="Helvetica"><tspan x="0" y="0">NETWORK</tspan></text>
    <path id="Path_28" data-name="Path 28" d="M15.39,0h91.66a7.031,7.031,0,0,0,.74,2.21L86.18,39.64a7.357,7.357,0,0,0-1.61.14,7.12,7.12,0,0,0-3.7,2.07,7.539,7.539,0,0,0-.88,1.16H36.83a6.97,6.97,0,0,0-12.07,6.97L3.59,86.65A7.564,7.564,0,0,0,0,87.71V15.39A15.441,15.441,0,0,1,15.39,0ZM152.84,90.78l-9.63-.04c-.42,0-.57.18-.57.74v5.67c0,.64.05.8.49.8l9.72.04a6.977,6.977,0,1,0,2.48-9.65,7.057,7.057,0,0,0-2.49,2.44ZM92.02,94.97h0a2.686,2.686,0,1,0,4.65-2.69L81.79,66.5l-.03-.05a2.69,2.69,0,0,0-4.66,2.69L91.98,94.92l.04.05Zm28.12-17.44h0a2.686,2.686,0,1,0,4.65-2.69L109.91,49.06l-.03-.05a2.69,2.69,0,0,0-4.66,2.69l14.89,25.78.03.05ZM120.63,0h.48A15.441,15.441,0,0,1,136.5,15.39V90.78H115.92L92.21,49.71a6.926,6.926,0,0,0,.03-6.13L114.05,5.82a7.374,7.374,0,0,0,1.39-.19,6.666,6.666,0,0,0,1.84-.73,6.855,6.855,0,0,0,3.2-4.18,4.384,4.384,0,0,0,.15-.72ZM136.5,97.99v48.5H91.34a6.754,6.754,0,0,0,1.36-2.63,6.926,6.926,0,0,0-.63-5.17l23.49-40.7H136.5Zm-55.91,48.5H36.24a5.956,5.956,0,0,0,.59-.83H80A6.207,6.207,0,0,0,80.59,146.49Zm-55.1,0H15.39A15.435,15.435,0,0,1,0,131.1V100.74a7.5,7.5,0,0,0,3.45,1.05l21.3,36.9a7.106,7.106,0,0,0-.86,3.15,6.9,6.9,0,0,0,.94,3.7,7.277,7.277,0,0,0,.66.95ZM10.07,89.85a7.6,7.6,0,0,1,.91,7.04,7.14,7.14,0,0,1-.98,1.8l21.01,36.39a6.964,6.964,0,0,1,5.82,3.36H80a6.451,6.451,0,0,1,.88-1.16,6.951,6.951,0,0,1,3.5-2.02,6.452,6.452,0,0,1,1.44-.18l10.91-18.89.01-.02,12.61-21.82L96.08,71.38l.02-.01L85.83,53.59a6.947,6.947,0,0,1-5.84-3.37l-43.15.01a7.006,7.006,0,0,1-4.39,3.18,7.093,7.093,0,0,1-1.44.18L10.07,89.85Z" fill="#152c57" fill-rule="evenodd"/>
  </g>
</svg>
