<svg id="Page-1" xmlns="http://www.w3.org/2000/svg" width="328.178" height="328.167" viewBox="0 0 328.178 328.167">
  <g id="_013---Secure-Payment" data-name="013---Secure-Payment" transform="translate(0 0)">
    <path id="Shape" d="M274.472,33.817v77.393a121.132,121.132,0,0,1-47.748-21.932,11.032,11.032,0,0,0-13.892,0c-26.581,21.331-63.391,25.706-81.112,26.527A10.939,10.939,0,0,0,121.328,126.8v54.694H33.817A32.817,32.817,0,0,1,1,148.675V33.817A32.817,32.817,0,0,1,33.817,1H241.656A32.817,32.817,0,0,1,274.472,33.817Z" transform="translate(4.469 4.469)" fill="#c7ffeb"/>
    <path id="Shape-2" data-name="Shape" d="M58.408,1H42A32.817,32.817,0,0,1,74.817,33.817v72.508a150.261,150.261,0,0,0,16.408,4.884V33.817A32.817,32.817,0,0,0,58.408,1Z" transform="translate(187.717 4.469)" fill="#91ccb7"/>
    <rect id="Rectangle-path" width="55" height="44" rx="2" transform="translate(33 33)" fill="#e8edfc"/>
    <circle id="Oval" cx="16.5" cy="16.5" r="16.5" transform="translate(219 38)" fill="#e8edfc"/>
    <circle id="Oval-2" data-name="Oval" cx="16.5" cy="16.5" r="16.5" transform="translate(186 38)" fill="#e8edfc"/>
    <path id="Shape-3" data-name="Shape" d="M219.9,56.672v70.665a14.406,14.406,0,0,1-.109,1.531c-1.313,9.243-15.314,91.5-94.785,118.632a10.578,10.578,0,0,1-7.11,0C38.424,220.372,24.422,138.112,23.11,128.868A14.414,14.414,0,0,1,23,127.337V56.672A10.939,10.939,0,0,1,33.392,45.678c17.721-.82,54.53-5.2,81.112-26.527a11.032,11.032,0,0,1,13.892,0,121.132,121.132,0,0,0,47.748,21.932,181.63,181.63,0,0,0,33.364,4.594A10.939,10.939,0,0,1,219.9,56.672Z" transform="translate(102.797 74.595)" fill="#c7ffeb"/>
    <path id="Shape-4" data-name="Shape" d="M135.762,45.678A181.63,181.63,0,0,1,102.4,41.084,121.132,121.132,0,0,1,54.65,19.151a11.032,11.032,0,0,0-13.892,0c-.41.328-.842.613-1.253.935a122.34,122.34,0,0,0,46.485,21,181.63,181.63,0,0,0,33.364,4.594,10.939,10.939,0,0,1,10.392,10.994v70.665a14.413,14.413,0,0,1-.109,1.531c-1.285,9.057-14.806,88.206-90.136,116.9,1.537.585,3.057,1.187,4.649,1.728a10.578,10.578,0,0,0,7.11,0c79.471-27.128,93.473-109.389,94.785-118.632a14.414,14.414,0,0,0,.109-1.531V56.672a10.939,10.939,0,0,0-10.392-10.994Z" transform="translate(176.543 74.595)" fill="#c7ffeb"/>
    <path id="Shape-5" data-name="Shape" d="M103.572,204.963c-62.86-23.639-75.079-88.9-76.572-98.713V46.683c20.565-2.007,51.074-8.04,76.572-25.515,25.5,17.5,56.007,23.519,76.572,25.515v59.584c-1.444,9.528-13.581,75.008-76.572,98.7Z" transform="translate(120.675 94.609)" fill="#91ccb7" opacity="0.221"/>
    <path id="Shape-6" data-name="Shape" d="M47.7,21.168c-2.68,1.838-5.437,3.479-8.2,5.07a174.2,174.2,0,0,0,68.368,20.445v59.584c-1.378,9.1-12.541,69.172-68.368,95.207,2.647,1.236,5.355,2.418,8.2,3.49,62.992-23.688,75.128-89.152,76.572-98.7V46.683C103.711,44.676,73.2,38.643,47.7,21.168Z" transform="translate(176.543 94.609)" fill="#c7ffeb"/>
    <path id="Shape-7" data-name="Shape" d="M17.408,148.675V33.817A32.817,32.817,0,0,1,50.225,1H33.817A32.817,32.817,0,0,0,1,33.817V148.675a32.817,32.817,0,0,0,32.817,32.817H50.225A32.817,32.817,0,0,1,17.408,148.675Z" transform="translate(4.469 4.469)" fill="#fff"/>
    <path id="Rectangle-path-2" data-name="Rectangle-path" d="M0,20H10.939V63.756H0Z" transform="translate(0 89.389)" fill="#fff"/>
    <g id="Group_6" data-name="Group 6">
      <circle id="Oval-3" data-name="Oval" cx="5.5" cy="5.5" r="5.5" transform="translate(0 126)" fill="#152c57"/>
      <path id="Shape-8" data-name="Shape" d="M54.225,5H21.408A16.408,16.408,0,0,0,5,21.408V43.286A16.408,16.408,0,0,0,21.408,59.694H54.225A16.408,16.408,0,0,0,70.633,43.286V21.408A16.408,16.408,0,0,0,54.225,5Zm5.469,16.408v5.469H37.817V15.939H54.225A5.469,5.469,0,0,1,59.694,21.408ZM21.408,15.939h5.469V26.878H15.939V21.408A5.469,5.469,0,0,1,21.408,15.939ZM15.939,43.286V37.817H26.878V48.756H21.408A5.469,5.469,0,0,1,15.939,43.286Zm38.286,5.469H37.817V37.817H59.694v5.469A5.469,5.469,0,0,1,54.225,48.756Z" transform="translate(22.347 22.347)" fill="#152c57"/>
      <path id="Shape-9" data-name="Shape" d="M50.756,26.469A5.469,5.469,0,0,0,45.286,21H12.469a5.469,5.469,0,0,0,0,10.939H45.286A5.469,5.469,0,0,0,50.756,26.469Z" transform="translate(31.286 93.858)" fill="#152c57"/>
      <path id="Shape-10" data-name="Shape" d="M27.939,21H22.469a5.469,5.469,0,0,0,0,10.939h5.469a5.469,5.469,0,0,0,0-10.939Z" transform="translate(75.981 93.858)" fill="#152c57"/>
      <path id="Shape-11" data-name="Shape" d="M12.469,27a5.469,5.469,0,1,0,0,10.939H23.408a5.469,5.469,0,1,0,0-10.939Z" transform="translate(31.286 120.675)" fill="#152c57"/>
      <path id="Shape-12" data-name="Shape" d="M19.469,37.939H41.347a5.469,5.469,0,1,0,0-10.939H19.469a5.469,5.469,0,1,0,0,10.939Z" transform="translate(62.572 120.675)" fill="#152c57"/>
      <path id="Shape-13" data-name="Shape" d="M71.395,42.2a21.878,21.878,0,1,0,0-28.638,21.878,21.878,0,1,0,0,28.638ZM87.8,16.94A10.939,10.939,0,1,1,76.864,27.879,10.939,10.939,0,0,1,87.8,16.94ZM44.047,27.879A10.939,10.939,0,1,1,54.986,38.817,10.939,10.939,0,0,1,44.047,27.879Z" transform="translate(147.383 26.816)" fill="#152c57"/>
      <path id="Shape-14" data-name="Shape" d="M312.568,114.809a183.5,183.5,0,0,1-28.157-3.528v-73A38.33,38.33,0,0,0,246.125,0H38.286A38.33,38.33,0,0,0,0,38.286v71.1a5.469,5.469,0,1,0,10.939,0v-71.1A27.38,27.38,0,0,1,38.286,10.939H246.125a27.38,27.38,0,0,1,27.347,27.347V108.6a109.755,109.755,0,0,1-38.833-19.143,16.468,16.468,0,0,0-20.751,0c-24.968,20.051-59.551,24.481-77.945,25.34a16.408,16.408,0,0,0-15.615,16.468v49.225H38.286a27.38,27.38,0,0,1-27.347-27.347,5.469,5.469,0,0,0-10.939,0,38.33,38.33,0,0,0,38.286,38.286h82.042V201.91a16.442,16.442,0,0,0,.17,2.357c1.384,9.621,15.922,94.84,98.45,123.024a16.534,16.534,0,0,0,10.616,0c82.523-28.184,97.061-113.4,98.45-123.062a16.7,16.7,0,0,0,.164-2.335V131.267a16.408,16.408,0,0,0-15.61-16.458Zm4.66,87.1a6.313,6.313,0,0,1-.055.8c-1.291,8.943-14.795,88.151-91.159,114.229a5.519,5.519,0,0,1-3.539,0c-76.359-26.078-89.863-105.27-91.148-114.213a5.835,5.835,0,0,1-.06-.815V131.267a5.469,5.469,0,0,1,5.169-5.53c19.723-.919,56.882-5.743,84.284-27.741a5.541,5.541,0,0,1,7.056,0c27.386,22,64.539,26.8,84.284,27.741a5.469,5.469,0,0,1,5.169,5.53Z" transform="translate(0 0)" fill="#152c57"/>
      <path id="Shape-15" data-name="Shape" d="M185.161,45.705a161.059,161.059,0,0,1-74.012-24.58,5.469,5.469,0,0,0-6.18,0,161.059,161.059,0,0,1-74.045,24.58A5.469,5.469,0,0,0,26,51.148v59.568a6.017,6.017,0,0,0,.06.826c1.974,12.913,15.085,78.574,80.056,103.006a5.469,5.469,0,0,0,3.829,0c66.465-24.973,78.88-95.086,80.078-103a5.776,5.776,0,0,0,.06-.815V51.148A5.469,5.469,0,0,0,185.161,45.705Zm-6.016,64.6c-1.406,8.844-13.165,70.239-71.1,93.259-57.872-22.972-69.686-84.415-71.1-93.276V56.054a171.254,171.254,0,0,0,71.1-23.858,171.254,171.254,0,0,0,71.1,23.858Z" transform="translate(116.206 90.145)" fill="#152c57"/>
      <path id="Shape-16" data-name="Shape" d="M43.281,69.831a5.469,5.469,0,0,0-7.734,7.734L57.425,99.443a5.47,5.47,0,0,0,3.867,1.6h.273a5.469,5.469,0,0,0,3.96-2L114.751,38.88a5.469,5.469,0,0,0-8.467-6.924l-45.4,55.488Z" transform="translate(152.016 134.141)" fill="#152c57"/>
    </g>
  </g>
</svg>
