<svg xmlns="http://www.w3.org/2000/svg" width="2885.529" height="2773.807" viewBox="0 0 2885.529 2773.807">
  <g id="Group_8" data-name="Group 8" transform="translate(-12307.002 -1874)">
    <path id="honeycomb" d="M2653.027,814.781,2878.884,664.21a47.823,47.823,0,0,0,13.264-66.319h0a47.823,47.823,0,0,0-66.318-13.264L2605.2,731.708,2366.081,572.3V358.769a47.823,47.823,0,0,0-47.823-47.823h0a47.823,47.823,0,0,0-47.823,47.823V572.3L2004.784,749.4a47.821,47.821,0,0,0-21.3,39.791V1050.54l-239.121,159.415-104.371-69.581-134.75-89.834V789.188a47.821,47.821,0,0,0-21.3-39.791L1218.3,572.3V310.946a47.821,47.821,0,0,0-21.3-39.791L931.353,94.055V71.823A47.823,47.823,0,0,0,883.53,24h0A47.823,47.823,0,0,0,835.7,71.823V94.055L596.584,253.465,357.462,94.055V71.823A47.823,47.823,0,0,0,309.639,24h0a47.823,47.823,0,0,0-47.823,47.823V94.055L35.956,244.627a47.823,47.823,0,0,0-13.264,66.319h0A47.823,47.823,0,0,0,89.011,324.21L309.638,177.129l239.121,159.41V572.3L322.9,722.869a47.823,47.823,0,0,0-13.264,66.319h0a47.823,47.823,0,0,0,66.319,13.264L596.584,655.367,835.7,814.781V1050.54l-265.649,177.1a47.821,47.821,0,0,0-21.3,39.791v261.352l-265.649,177.1a47.821,47.821,0,0,0-21.3,39.791v261.352L35.956,2157.6a47.823,47.823,0,0,0-13.264,66.319h0a47.823,47.823,0,0,0,66.318,13.264L309.638,2090.1l239.121,159.41v213.529a47.823,47.823,0,0,0,47.823,47.823h0a47.823,47.823,0,0,0,47.823-47.823V2249.509l265.649-177.1a47.821,47.821,0,0,0,21.3-39.791V1771.266l239.121-159.413L1409.6,1771.266v261.352a47.82,47.82,0,0,0,21.3,39.791l265.649,177.1v261.352a47.821,47.821,0,0,0,21.3,39.791l265.649,177.1v22.232a47.823,47.823,0,0,0,47.823,47.823h0a47.823,47.823,0,0,0,47.823-47.823v-22.232l265.649-177.1a47.821,47.821,0,0,0,21.3-39.791V2223.916a47.821,47.821,0,0,0-21.3-39.791l-265.649-177.1V1771.266l239.121-159.413,220.627,147.084a47.823,47.823,0,0,0,66.318-13.264h0a47.823,47.823,0,0,0-13.264-66.319l-225.858-150.572V1293.024l239.121-159.41L2825.829,1280.7a47.823,47.823,0,0,0,66.318-13.264h0a47.823,47.823,0,0,0-13.264-66.319L2653.027,1050.54Zm-573.891,0,239.121-159.41,239.121,159.41V1050.54l-239.121,159.41-239.121-159.41Zm191.3,714-239.121,159.41-239.121-159.41V1293.024l239.121-159.41,239.121,159.41ZM1409.6,1050.54l-239.121,159.41L931.353,1050.54V814.781l239.121-159.41L1409.6,814.781Zm-765.188-714,239.121-159.41,239.121,159.41V572.3L883.529,731.708,644.408,572.3Zm0,956.485,239.121-159.41,239.121,159.41v235.759l-239.121,159.41-239.121-159.41Zm191.3,714-239.121,159.41-239.121-159.41V1771.266l239.121-159.41L835.7,1771.266Zm382.594-714,239.121-159.41,131.8,87.866,107.319,71.544v235.759l-239.121,159.41L1218.3,1528.783Zm286.945,478.242,239.121-159.41,239.121,159.41v235.759l-239.121,159.41-239.121-159.41Zm765.188,714-239.121,159.41-239.121-159.41V2249.509l239.121-159.41,239.121,159.41Z" transform="translate(12292.347 1850)" fill="#f7faff"/>
  </g>
</svg>
