<?xml version="1.0" standalone="no"?>
<!DOCTYPE svg PUBLIC "-//W3C//DTD SVG 20010904//EN"
 "http://www.w3.org/TR/2001/REC-SVG-20010904/DTD/svg10.dtd">
<svg version="1.0" xmlns="http://www.w3.org/2000/svg"
 width="944.000000pt" height="944.000000pt" viewBox="0 0 944.000000 944.000000"
 preserveAspectRatio="xMidYMid meet">
<metadata>
Created by potrace 1.11, written by Peter Selinger 2001-2013
</metadata>
<g transform="translate(0.000000,944.000000) scale(0.100000,-0.100000)"
fill="#000000" stroke="none">
<path d="M698 8871 c-38 -10 -68 -16 -68 -15 0 2 -12 -3 -27 -11 -15 -8 -30
-12 -35 -9 -4 3 -8 0 -8 -7 0 -7 -3 -9 -7 -6 -7 7 -136 -59 -186 -96 -58 -42
-182 -172 -220 -230 -41 -61 -97 -180 -98 -207 -1 -3 -4 -9 -9 -15 -4 -5 -10
-26 -14 -45 -3 -19 -9 -46 -13 -60 -10 -34 -15 -4270 -5 -4270 4 0 16 6 27 14
17 11 46 21 90 31 6 2 25 5 44 8 39 6 33 0 108 132 32 55 61 102 65 103 4 2 8
7 8 12 0 6 56 105 241 428 11 17 28 47 38 66 11 19 31 53 45 75 15 22 26 43
26 46 0 3 12 24 26 46 14 23 37 62 51 87 15 26 33 59 42 74 9 14 43 73 75 130
33 57 97 167 143 246 45 79 83 147 83 152 0 6 5 10 10 10 6 0 10 4 10 10 0 5
20 44 45 86 25 41 45 77 45 79 0 1 31 54 68 116 37 63 71 121 75 129 4 8 14
26 22 40 10 17 11 28 3 37 -6 7 -8 13 -5 13 3 0 -1 17 -10 37 -35 85 -20 240
32 328 73 123 206 198 350 197 115 -1 200 -42 298 -144 30 -32 52 -48 62 -44
8 3 15 1 15 -5 0 -6 5 -7 12 -3 16 10 508 11 508 1 0 -5 5 -5 12 -1 16 10 948
11 948 1 0 -5 5 -5 12 -1 6 4 215 8 464 8 l453 1 48 51 c83 87 181 135 285
137 26 1 39 16 83 102 9 17 24 44 35 60 11 17 27 47 36 68 9 20 20 37 24 37 4
0 10 8 13 18 4 9 20 40 37 67 17 28 33 57 37 65 3 8 19 34 34 56 16 23 25 44
22 48 -4 3 -2 6 4 6 6 0 14 11 17 25 4 14 11 25 16 25 6 0 10 4 10 10 0 5 36
71 80 146 44 75 80 140 80 145 0 4 3 9 8 11 4 2 21 29 37 60 17 32 33 58 38
58 4 0 7 9 7 19 0 11 4 22 9 25 5 4 27 37 48 74 21 37 43 76 50 87 7 11 17 29
23 40 6 11 26 47 46 80 19 33 38 68 41 78 3 9 9 17 14 17 5 0 9 4 9 10 0 5 24
49 53 97 28 48 63 109 77 136 14 26 28 47 32 47 5 0 8 6 8 13 0 8 17 41 38 73
20 33 46 77 57 99 11 22 24 45 28 50 5 6 30 48 56 95 45 78 48 87 36 110 -7
14 -16 42 -20 63 l-7 37 -2667 -1 c-2492 -1 -2670 -2 -2733 -18z"/>
<path d="M6860 8849 c-13 -50 -47 -112 -87 -160 -26 -31 -124 -99 -147 -103
-6 -1 -16 -5 -22 -9 -6 -3 -33 -9 -60 -12 -27 -4 -49 -7 -50 -8 -13 -15 -124
-212 -129 -227 -3 -11 -10 -20 -14 -20 -5 0 -14 -15 -22 -32 -7 -18 -15 -35
-19 -38 -3 -3 -14 -22 -25 -42 -11 -21 -23 -38 -27 -38 -5 0 -8 -3 -7 -7 2
-15 -13 -53 -21 -53 -4 0 -10 -8 -13 -17 -6 -20 -38 -75 -48 -83 -3 -3 -8 -10
-10 -16 -3 -8 -176 -310 -220 -384 -41 -69 -126 -218 -132 -230 -4 -8 -17 -31
-28 -50 -12 -19 -33 -55 -47 -80 -14 -25 -33 -57 -43 -72 -11 -14 -19 -29 -19
-32 0 -4 -20 -40 -45 -80 -25 -41 -45 -78 -45 -82 0 -4 -6 -15 -14 -23 -8 -9
-26 -38 -41 -66 -14 -27 -35 -63 -46 -80 -10 -16 -22 -37 -26 -45 -4 -8 -29
-53 -56 -100 -27 -47 -57 -98 -67 -115 -9 -16 -31 -53 -47 -80 l-30 -51 18
-54 c21 -64 21 -207 -1 -255 -7 -16 -14 -34 -15 -40 -1 -12 56 -119 67 -123 4
-2 8 -7 8 -12 0 -4 30 -59 66 -121 37 -63 82 -141 101 -174 18 -33 38 -67 43
-75 19 -31 286 -496 293 -510 5 -8 19 -33 33 -55 13 -22 30 -52 36 -67 7 -16
16 -28 20 -28 4 0 8 -5 8 -11 0 -6 8 -23 18 -37 11 -15 33 -52 49 -82 69 -125
87 -155 97 -162 6 -4 7 -8 3 -8 -5 0 1 -12 12 -26 12 -15 21 -33 21 -40 0 -8
5 -14 10 -14 6 0 10 -5 10 -10 0 -6 18 -40 40 -76 22 -36 40 -67 40 -69 0 -2
27 -49 60 -105 33 -56 60 -106 60 -111 0 -5 4 -9 9 -9 5 0 13 -9 16 -20 4 -11
24 -49 46 -85 21 -36 39 -67 39 -70 0 -3 20 -36 45 -75 25 -38 42 -70 39 -70
-4 0 -1 -7 6 -15 7 -8 20 -30 30 -48 l17 -32 587 -1 586 0 1 25 c3 149 -1
4328 -5 4361 -17 145 -72 290 -153 404 -46 65 -49 68 -111 128 -146 143 -343
231 -549 245 l-82 5 -11 -43z m-668 -2690 c31 -16 68 -51 63 -59 -2 -4 3 -16
13 -27 9 -10 25 -35 36 -54 24 -44 33 -60 151 -264 55 -93 104 -180 109 -192
6 -13 14 -23 19 -23 4 0 7 -4 7 -9 0 -8 80 -151 90 -161 3 -3 12 -18 20 -35 8
-16 32 -58 52 -93 21 -34 38 -65 38 -69 0 -3 6 -14 14 -22 7 -9 28 -43 46 -76
17 -33 44 -81 60 -107 15 -25 39 -66 53 -90 13 -23 38 -67 56 -96 17 -29 31
-57 31 -62 0 -4 3 -10 8 -12 4 -1 21 -30 38 -63 29 -56 32 -71 25 -146 -2 -22
-56 -78 -89 -91 -77 -31 -166 11 -207 97 -8 17 -32 58 -54 93 -22 34 -37 62
-34 62 3 0 -1 8 -9 18 -8 9 -41 63 -73 120 -31 56 -61 105 -66 108 -5 3 -7 10
-4 15 4 5 1 9 -4 9 -6 0 -11 4 -11 10 0 5 -25 50 -55 100 -30 50 -55 95 -55
100 0 6 -5 10 -12 10 -6 0 -9 3 -5 6 3 3 -9 29 -27 57 -18 29 -36 59 -39 67
-4 8 -18 33 -32 55 -14 22 -32 56 -42 75 -9 19 -20 37 -23 40 -10 8 -90 151
-90 161 0 5 -4 9 -9 9 -5 0 -11 8 -14 18 -4 9 -17 35 -30 57 -114 189 -167
292 -167 322 0 117 123 195 222 142z"/>
<path d="M2090 6020 c0 -5 -23 -32 -50 -60 -56 -57 -154 -108 -221 -114 -46
-5 -67 -23 -99 -87 -13 -24 -26 -46 -29 -49 -4 -3 -12 -16 -18 -30 -14 -28
-25 -48 -170 -296 -55 -94 -103 -178 -107 -185 -3 -8 -17 -32 -31 -54 -14 -22
-28 -47 -32 -55 -4 -8 -24 -43 -45 -78 -21 -34 -38 -64 -38 -66 0 -3 -36 -66
-90 -156 -33 -56 -346 -601 -359 -625 -9 -16 -19 -32 -22 -35 -3 -3 -19 -30
-36 -60 -16 -30 -61 -109 -100 -175 l-69 -120 26 -46 c32 -54 40 -82 47 -174
7 -85 -10 -163 -48 -232 l-29 -52 27 -48 c14 -27 37 -65 50 -85 12 -21 23 -40
23 -43 0 -4 14 -26 30 -50 17 -24 30 -46 30 -48 0 -3 54 -99 121 -213 149
-257 169 -291 192 -329 9 -16 20 -38 23 -48 4 -9 10 -17 15 -17 5 0 9 -5 9
-11 0 -6 41 -81 92 -167 50 -87 105 -182 121 -212 17 -30 38 -67 49 -82 10
-14 18 -31 18 -37 0 -6 4 -11 8 -11 4 0 13 -12 19 -27 7 -16 17 -35 22 -43 16
-24 91 -152 91 -155 0 -2 42 -74 93 -162 50 -87 101 -175 112 -196 31 -59 58
-86 90 -92 75 -13 90 -17 135 -40 46 -23 128 -95 147 -129 9 -16 80 -17 1239
-17 l1229 -1 15 24 c47 74 178 154 266 163 26 3 52 11 56 18 4 6 34 57 65 112
31 55 60 102 63 105 3 3 14 23 25 45 11 22 30 54 43 71 12 17 22 34 22 39 0 4
29 56 65 116 36 59 65 110 65 113 0 2 18 34 41 71 22 37 49 82 58 99 21 36
158 274 172 296 5 8 56 98 115 200 58 102 116 201 128 220 11 19 21 37 21 40
0 3 8 16 16 30 31 48 79 130 79 134 0 3 102 178 120 206 6 8 13 22 17 30 4 8
33 59 65 113 32 54 58 102 58 107 0 5 3 10 8 12 4 2 14 17 23 33 8 17 26 49
40 72 19 33 22 46 13 60 -6 10 -22 38 -36 63 -14 25 -41 72 -60 105 -19 33
-44 76 -54 95 -10 19 -22 37 -26 38 -5 2 -8 8 -8 13 0 6 -23 49 -51 97 -29 48
-61 103 -72 122 -37 67 -118 205 -127 220 -6 8 -13 22 -17 30 -4 8 -17 32 -30
53 -24 38 -42 69 -91 157 -14 25 -63 109 -109 188 -45 78 -83 145 -83 148 0 3
-13 26 -30 51 -16 24 -30 46 -30 48 0 2 -29 54 -65 115 -36 61 -76 130 -89
153 -12 23 -67 119 -121 212 -54 94 -106 183 -114 200 -9 16 -19 32 -22 35 -3
3 -8 10 -10 15 -2 6 -20 38 -39 73 -33 60 -51 74 -95 77 -87 7 -209 80 -259
158 l-18 27 -1234 0 c-782 0 -1234 -4 -1234 -10z m2490 -848 c29 -12 90 -70
90 -86 0 -3 20 -40 45 -82 25 -41 45 -78 45 -81 0 -4 10 -20 23 -37 12 -17 28
-42 35 -56 6 -14 16 -32 21 -40 6 -8 43 -73 84 -145 41 -71 84 -146 96 -165
11 -19 24 -42 28 -50 3 -8 16 -31 28 -50 12 -19 34 -56 48 -82 15 -27 39 -69
54 -95 14 -27 37 -65 50 -85 12 -21 23 -42 23 -48 0 -5 5 -10 10 -10 6 0 10
-4 10 -9 0 -5 23 -47 50 -94 28 -47 50 -90 50 -96 0 -6 4 -11 8 -11 5 0 16
-17 26 -37 10 -20 37 -69 60 -108 46 -75 65 -121 60 -145 -1 -8 -4 -24 -6 -35
-12 -68 -82 -119 -154 -114 -71 5 -100 28 -152 120 -43 77 -47 84 -52 89 -3 3
-11 16 -18 30 -7 14 -24 46 -40 71 -27 46 -61 106 -117 204 -15 28 -39 67 -52
87 -12 21 -23 42 -23 48 0 5 -4 10 -10 10 -5 0 -10 5 -10 11 0 6 -17 39 -37
73 -21 33 -37 64 -36 68 1 3 -4 12 -12 18 -8 7 -15 19 -15 26 0 8 -4 14 -10
14 -5 0 -10 4 -10 9 0 4 -21 45 -47 90 -27 45 -55 93 -63 109 -8 15 -26 45
-39 67 -13 22 -34 58 -46 80 -12 22 -32 56 -43 75 -166 278 -181 319 -143 390
39 73 116 102 191 72z"/>
<path d="M9017 3914 c-1 -1 -20 -4 -42 -6 -22 -3 -62 -14 -88 -26 -57 -25
-146 -92 -147 -109 0 -7 -4 -13 -9 -13 -5 0 -12 -8 -16 -18 -5 -18 -21 -19
-291 -18 -180 1 -289 -3 -294 -9 -13 -16 -10 -384 3 -392 7 -4 137 -9 290 -10
l279 -3 21 -27 c76 -97 196 -160 312 -164 59 -2 173 30 206 58 8 7 20 13 26
13 6 0 25 16 42 35 17 19 35 35 41 35 5 0 10 5 10 10 0 6 9 23 19 38 39 54 63
151 57 227 -3 39 -7 77 -8 85 -9 43 -66 137 -108 179 -51 51 -143 101 -191
104 -16 1 -29 4 -29 7 0 4 -79 8 -83 4z"/>
<path d="M6557 3273 c-13 -21 -27 -48 -31 -60 -4 -13 -12 -23 -17 -23 -5 0 -9
-4 -9 -9 0 -6 -29 -60 -65 -121 -36 -61 -76 -130 -89 -153 -26 -46 -164 -286
-193 -335 -71 -121 -113 -197 -113 -204 0 -4 -4 -8 -10 -8 -5 0 -10 -6 -10
-14 0 -8 -7 -22 -16 -30 -8 -9 -13 -16 -10 -16 3 0 -10 -25 -29 -55 -19 -30
-35 -58 -35 -63 0 -5 -8 -20 -19 -33 -10 -13 -33 -51 -51 -84 -35 -64 -114
-200 -130 -225 -5 -8 -28 -49 -52 -90 -183 -323 -243 -425 -250 -428 -4 -2 -8
-7 -8 -12 0 -5 -38 -74 -85 -155 -79 -135 -98 -186 -76 -199 17 -11 34 -127
28 -193 -6 -59 -18 -93 -75 -205 -2 -5 573 -8 1277 -8 1018 0 1281 3 1282 13
0 6 1 626 1 1377 l0 1365 -596 3 -596 2 -23 -37z"/>
<path d="M3 2218 c3 -925 3 -934 25 -1011 42 -151 121 -287 226 -392 68 -68
139 -125 155 -125 6 0 11 -4 11 -8 0 -5 19 -17 43 -28 23 -10 44 -21 47 -24 3
-3 12 -6 20 -8 8 -2 29 -10 45 -17 29 -13 74 -26 105 -31 8 -1 26 -6 40 -10
33 -10 738 -17 725 -7 -18 14 -57 93 -70 142 -23 87 -9 234 27 278 9 11 -14
63 -63 138 -10 17 -22 37 -26 45 -4 8 -33 59 -65 113 -32 55 -58 103 -58 108
0 5 -4 9 -8 9 -4 0 -13 12 -19 28 -12 28 -54 103 -63 112 -3 3 -14 23 -26 45
-12 22 -54 96 -94 165 -40 68 -81 139 -91 157 -45 79 -63 110 -80 138 -11 17
-24 41 -31 55 -7 14 -20 36 -29 50 -10 14 -32 53 -50 85 -17 33 -37 67 -44 75
-6 8 -25 41 -41 72 -16 32 -32 58 -36 58 -5 0 -8 4 -8 9 0 5 -22 48 -50 96
-27 48 -50 91 -50 96 0 5 -4 9 -8 9 -4 0 -13 12 -19 28 -7 15 -17 34 -22 42
-6 8 -56 94 -112 190 -55 96 -105 180 -110 186 -5 6 -32 15 -61 18 -28 4 -68
16 -89 27 -21 10 -41 19 -44 19 -3 0 -4 -420 -2 -932z"/>
<path d="M2082 579 c-7 -10 -12 -21 -12 -24 0 -3 565 -5 1255 -5 690 0 1255 3
1255 6 0 3 -4 14 -10 24 -9 17 -59 18 -1243 18 -1197 0 -1234 -1 -1245 -19z"/>
</g>
</svg>
